<?xml version="1.0" encoding="UTF-8" standalone="no"?>
<svg
   width="297mm"
   height="210mm"
   viewBox="0 0 1052.3622 744.09449"
   id="svg16096"
   version="1.1"
   inkscape:version="1.4 (86a8ad7, 2024-10-11)"
   sodipodi:docname="ram1_mod_P4_frameB.svg"
   xmlns:inkscape="http://www.inkscape.org/namespaces/inkscape"
   xmlns:sodipodi="http://sodipodi.sourceforge.net/DTD/sodipodi-0.dtd"
   xmlns="http://www.w3.org/2000/svg"
   xmlns:svg="http://www.w3.org/2000/svg"
   xmlns:rdf="http://www.w3.org/1999/02/22-rdf-syntax-ns#"
   xmlns:cc="http://creativecommons.org/ns#"
   xmlns:dc="http://purl.org/dc/elements/1.1/">
  <defs
     id="defs16098" />
  <sodipodi:namedview
     id="base"
     pagecolor="#ffffff"
     bordercolor="#666666"
     borderopacity="1.0"
     inkscape:pageopacity="0.0"
     inkscape:pageshadow="2"
     inkscape:zoom="1.0772321"
     inkscape:cx="613.60964"
     inkscape:cy="221.40075"
     inkscape:document-units="mm"
     inkscape:current-layer="layer1"
     showgrid="false"
     inkscape:snap-bbox="false"
     inkscape:bbox-paths="true"
     inkscape:bbox-nodes="true"
     inkscape:snap-bbox-edge-midpoints="true"
     inkscape:snap-bbox-midpoints="true"
     inkscape:object-paths="true"
     inkscape:snap-intersection-paths="true"
     inkscape:object-nodes="true"
     inkscape:snap-smooth-nodes="true"
     inkscape:snap-midpoints="false"
     inkscape:snap-global="true"
     inkscape:window-width="1920"
     inkscape:window-height="1051"
     inkscape:window-x="-9"
     inkscape:window-y="-9"
     inkscape:window-maximized="1"
     inkscape:snap-others="true"
     inkscape:snap-page="true"
     showguides="true"
     inkscape:document-rotation="0"
     inkscape:snap-object-midpoints="true"
     inkscape:showpageshadow="2"
     inkscape:pagecheckerboard="0"
     inkscape:deskcolor="#d1d1d1" />
  <metadata
     id="metadata16101">
    <rdf:RDF>
      <cc:Work
         rdf:about="">
        <dc:format>image/svg+xml</dc:format>
        <dc:type
           rdf:resource="http://purl.org/dc/dcmitype/StillImage" />
      </cc:Work>
    </rdf:RDF>
  </metadata>
  <g
     inkscape:label="Layer 1"
     inkscape:groupmode="layer"
     id="layer1">
    <g
       id="g5917"
       transform="rotate(5,112.42419,96.646058)" />
    <text
       xml:space="preserve"
       style="font-size:37.5px;line-height:125%;font-family:sans-serif;letter-spacing:0px;word-spacing:0px;fill:none;stroke:#000000;stroke-width:0.9375px;stroke-linecap:butt;stroke-linejoin:miter;stroke-opacity:1"
       x="626.29767"
       y="597.28278"
       id="text2573"><tspan
         sodipodi:role="line"
         id="tspan2571"
         x="626.29767"
         y="597.28278"
         style="stroke-width:0.9375px" /></text>
    <text
       xml:space="preserve"
       style="font-size:37.5px;line-height:125%;font-family:sans-serif;letter-spacing:0px;word-spacing:0px;fill:none;stroke:#000000;stroke-width:0.9375px;stroke-linecap:butt;stroke-linejoin:miter;stroke-opacity:1"
       x="491.08011"
       y="191.46432"
       id="text2563"><tspan
         sodipodi:role="line"
         id="tspan2561"
         x="491.08011"
         y="191.46432"
         style="stroke-width:0.9375px" /></text>
    <rect
       style="opacity:0.997;fill:none;stroke:#ff0000;stroke-width:0.885827;stroke-linecap:square;stroke-miterlimit:4;stroke-dasharray:none;stroke-dashoffset:0;stroke-opacity:0.937255"
       id="rect10928"
       width="24.80315"
       height="24.80315"
       x="0"
       y="0" />
    <g
       id="g9005"
       transform="translate(-475.80603,-1.9254993)"
       style="stroke-width:1.77165">
      <g
         id="g8933"
         transform="translate(478.94713,148.41308)"
         style="stroke-width:1.77165">
        <rect
           style="opacity:0.997;fill:none;stroke:#00ffff;stroke-width:1.77165;stroke-linecap:square;stroke-miterlimit:4;stroke-dasharray:none;stroke-dashoffset:0;stroke-opacity:0.937255"
           id="rect8925"
           width="96.08316"
           height="192.22357"
           x="1827.2405"
           y="86.470184" />
        <rect
           style="opacity:0.997;fill:none;stroke:#00ffff;stroke-width:1.77165;stroke-linecap:square;stroke-miterlimit:4;stroke-dasharray:none;stroke-dashoffset:0;stroke-opacity:0.937255"
           id="rect8927"
           width="17.716528"
           height="35.433071"
           x="1844.957"
           y="121.90336" />
        <rect
           style="opacity:0.997;fill:none;stroke:#00ffff;stroke-width:1.77165;stroke-linecap:square;stroke-miterlimit:4;stroke-dasharray:none;stroke-dashoffset:0;stroke-opacity:0.937255"
           id="rect8929"
           width="17.716528"
           height="35.433071"
           x="1844.957"
           y="185.5367" />
        <rect
           style="opacity:0.997;fill:none;stroke:#00ffff;stroke-width:1.77165;stroke-linecap:square;stroke-miterlimit:4;stroke-dasharray:none;stroke-dashoffset:0;stroke-opacity:0.937255"
           id="rect8931"
           width="17.716528"
           height="35.433071"
           x="1862.6733"
           y="243.26068" />
      </g>
      <g
         id="g8945"
         transform="translate(478.94713,148.41308)"
         style="stroke-width:1.77165">
        <rect
           style="opacity:0.997;fill:none;stroke:#00ffff;stroke-width:1.77165;stroke-linecap:square;stroke-miterlimit:4;stroke-dasharray:none;stroke-dashoffset:0;stroke-opacity:0.937255"
           id="rect8937"
           width="96.08316"
           height="192.22357"
           x="1827.2405"
           y="86.470184" />
        <rect
           style="opacity:0.997;fill:none;stroke:#00ffff;stroke-width:1.77165;stroke-linecap:square;stroke-miterlimit:4;stroke-dasharray:none;stroke-dashoffset:0;stroke-opacity:0.937255"
           id="rect8939"
           width="17.716528"
           height="35.433071"
           x="1844.957"
           y="121.90336" />
        <rect
           style="opacity:0.997;fill:none;stroke:#00ffff;stroke-width:1.77165;stroke-linecap:square;stroke-miterlimit:4;stroke-dasharray:none;stroke-dashoffset:0;stroke-opacity:0.937255"
           id="rect8941"
           width="17.716528"
           height="35.433071"
           x="1844.957"
           y="185.5367" />
        <rect
           style="opacity:0.997;fill:none;stroke:#00ffff;stroke-width:1.77165;stroke-linecap:square;stroke-miterlimit:4;stroke-dasharray:none;stroke-dashoffset:0;stroke-opacity:0.937255"
           id="rect8943"
           width="17.716528"
           height="35.433071"
           x="1862.6733"
           y="243.26068" />
      </g>
    </g>
    <g
       id="g9209"
       transform="translate(-220.18005,191.73724)"
       style="stroke-width:0.354331">
      <rect
         style="fill:none;stroke:#0000ff;stroke-width:0.354331;stroke-linecap:square;stroke-miterlimit:4;stroke-dasharray:none"
         id="rect9199"
         width="177.16536"
         height="17.716536"
         x="1971.814"
         y="-424.23932"
         transform="rotate(12.5)" />
      <path
         style="fill:none;fill-rule:evenodd;stroke:#0000ff;stroke-width:0.354331;stroke-linecap:butt;stroke-linejoin:miter;stroke-opacity:1"
         d="m 2016.8962,12.59551 172.9657,38.34561 v -90.73347 l -153.793,-34.09509 z"
         id="path9201" />
      <rect
         style="opacity:0.998;fill:none;stroke:#0000ff;stroke-width:0.354331;stroke-linecap:square;stroke-miterlimit:4;stroke-dasharray:none;stroke-dashoffset:0;stroke-opacity:0.937255"
         id="rect9203"
         width="17.716566"
         height="44.29134"
         x="1995.3452"
         y="-3.0708191" />
      <rect
         style="opacity:0.998;fill:none;stroke:#00ffff;stroke-width:0.354331;stroke-linecap:square;stroke-miterlimit:4;stroke-dasharray:none;stroke-dashoffset:0;stroke-opacity:0.937255"
         id="rect9205"
         width="17.716536"
         height="98.793175"
         x="1995.3451"
         y="41.22044" />
      <rect
         style="opacity:0.997;fill:none;stroke:#ff0000;stroke-width:0.354331;stroke-linecap:square;stroke-miterlimit:4;stroke-dasharray:none;stroke-dashoffset:0;stroke-opacity:0.937255"
         id="rect9207"
         width="120.47244"
         height="17.716536"
         x="1971.814"
         y="-424.23932"
         transform="rotate(12.5)" />
    </g>
    <path
       style="fill:none;fill-rule:evenodd;stroke:#000000;stroke-width:0.937504px;stroke-linecap:butt;stroke-linejoin:miter;stroke-opacity:1"
       d="M 1023.3326,24.80315 H 24.80315 l 0,500.32807"
       id="path4" />
    <path
       style="fill:none;fill-rule:evenodd;stroke:#ff00ff;stroke-width:0.885827;stroke-linecap:butt;stroke-linejoin:miter;stroke-opacity:1"
       d="m 42.5197,564.72899 v -57.72399 0 l -1e-4,-35.53928 v 0 -27.92697 -18.26431 H 24.8031 l 10e-5,-35.43308 17.7164,10e-6 26.347502,-10e-6 v -20.63743 0 0 l 26.83909,-3.22212 -2.31249,-17.56496 17.564888,-2.31247 2.3124,17.56496 52.695,-6.9374 92.9188,-2e-5 v -23.27319 l -1e-4,-25.11333 h 26.8138 v 49.06906 0 0 l 44.0527,-0.68002 -3e-4,-83.82221 v 0 l 3e-4,-43.70998 v 0 l 33.7977,-7.49278 3.83461,17.29652 99.14209,-21.97924 2.1e-4,17.71646 v 0 35.43307 0 53.14966 0 35.43307 0 l -2.1e-4,58.0309 17.7166,10e-6 -10e-5,147.93907 z"
       id="path2291-9-4-5"
       sodipodi:nodetypes="cccccccccccccccccccccccccccccccccccccccccccccc" />
    <path
       style="fill:none;fill-rule:evenodd;stroke:#ff00ff;stroke-width:0.885827;stroke-linecap:butt;stroke-linejoin:miter;stroke-opacity:1"
       d="m 908.24799,217.02675 v 57.72399 0 l 1e-4,35.53928 v 0 27.92697 18.26431 h 17.7165 l -1e-4,35.43308 -17.7164,-10e-6 -26.3475,10e-6 v 20.63743 0 0 l -26.8391,3.22212 2.3125,17.56496 -17.5649,2.31247 -2.3124,-17.56496 -52.695,6.9374 -92.9188,2e-5 v 23.27319 l 10e-5,25.11333 h -26.8138 v -49.06906 0 0 l -44.0527,0.68002 3e-4,83.82221 v 0 l -3e-4,43.70998 v 0 l -33.7977,7.49278 -3.8346,-17.29652 -99.1421,21.97924 -2e-4,-17.71646 v 0 -35.43307 0 -53.14966 0 -35.43307 0 l 2e-4,-58.0309 -17.7166,-10e-6 1e-4,-147.93907 z"
       id="path2291-9-4-5-4"
       sodipodi:nodetypes="cccccccccccccccccccccccccccccccccccccccccccccc" />
    <path
       style="fill:none;fill-rule:evenodd;stroke:#ff0000;stroke-width:0.354331;stroke-linecap:butt;stroke-linejoin:miter;stroke-opacity:1"
       d="m 165.96599,356.73194 -70.2598,9.24987 2.3124,17.56496 70.2598,-9.24988 z"
       id="path24" />
    <path
       style="fill:none;fill-rule:evenodd;stroke:#ff0000;stroke-width:0.354331;stroke-linecap:butt;stroke-linejoin:miter;stroke-opacity:1"
       d="m 852.74909,398.20897 -70.2598,9.24987 2.3124,17.56496 70.2598,-9.24988 z"
       id="path24-3" />
    <path
       style="fill:none;fill-rule:evenodd;stroke:#0000ff;stroke-width:0.885827;stroke-linecap:butt;stroke-linejoin:miter;stroke-opacity:1"
       d="m 24.80315,24.80315 -2e-4,139.074 h 17.7165 v 53.14954 l 241.0745,3e-5 v -53.14953 h 17.7165 v 53.14953 l 241.0746,10e-6 v -53.14954 h 17.7165 v 53.14954 l 242.2555,2e-5 -1.1811,-53.14956 h 17.7165 l -2e-4,-139.07401 -17.71645,8e-5 V 77.9528 l -17.7165,2e-5 V 24.80326 L 60.23615,24.80315 V 77.95269 H 42.51965 V 24.80315 Z"
       id="path1"
       sodipodi:nodetypes="ccccccccccccccccccccccccc" />
  </g>
</svg>
